<svg version="1.1" viewBox="0.0 0.0 1000.0 1000.0" fill="none" stroke="none" stroke-linecap="square" stroke-miterlimit="10" xmlns:xlink="http://www.w3.org/1999/xlink" xmlns="http://www.w3.org/2000/svg"><clipPath id="p.0"><path d="m0 0l1000.0 0l0 1000.0l-1000.0 0l0 -1000.0z" clip-rule="nonzero"/></clipPath><g clip-path="url(#p.0)"><path fill="#000000" fill-opacity="0.0" d="m0 0l1000.0 0l0 1000.0l-1000.0 0z" fill-rule="evenodd"/><path fill="#011d3d" d="m63.817585 581.6963l0 0c0 -21.426453 17.369572 -38.79602 38.796024 -38.79602l314.7229 0c10.289337 0 20.157257 4.0874023 27.432922 11.363098c7.2756653 7.275635 11.363098 17.143555 11.363098 27.432922l0 314.7229c0 21.426453 -17.369568 38.79602 -38.79602 38.79602l-314.7229 0c-21.426453 0 -38.796024 -17.369568 -38.796024 -38.79602z" fill-rule="evenodd"/><path fill="#011d3d" d="m63.817585 103.5808l0 0c0 -21.426453 17.369572 -38.79603 38.796024 -38.79603l314.7229 0c10.289337 0 20.157257 4.087425 27.432922 11.363098c7.2756653 7.2756653 11.363098 17.143585 11.363098 27.43293l0 314.7229c0 21.426453 -17.369568 38.79602 -38.79602 38.79602l-314.7229 0c-21.426453 0 -38.796024 -17.369568 -38.796024 -38.79602z" fill-rule="evenodd"/><path fill="#011d3d" d="m543.86743 103.5808l0 0c0 -21.426453 17.369568 -38.79603 38.79602 -38.79603l314.72296 0c10.289307 0 20.157227 4.087425 27.432922 11.363098c7.275635 7.2756653 11.363098 17.143585 11.363098 27.43293l0 314.7229c0 21.426453 -17.369568 38.79602 -38.79602 38.79602l-314.72296 0c-21.426453 0 -38.79602 -17.369568 -38.79602 -38.79602z" fill-rule="evenodd"/></g></svg>